<svg preserveAspectRatio="none" overflow="visible" style="display: block;" width="13" height="13" viewBox="0 0 13 13" fill="none" xmlns="http://www.w3.org/2000/svg">
<g id="Icon">
<path d="M5 6.1001C5 5.82396 5.22386 5.6001 5.5 5.6001H6.5C6.77614 5.6001 7 5.82396 7 6.1001V9.0001H7.5C7.77614 9.0001 8 9.22396 8 9.5001C8 9.77624 7.77614 10.0001 7.5 10.0001L5.49995 10C5.22381 9.99997 4.99997 9.77609 5 9.49995C5.00003 9.22381 5.22391 8.99997 5.50005 9L6 9.00005V6.6001H5.5C5.22386 6.6001 5 6.37624 5 6.1001Z" fill="black" fill-opacity="0.56"/>
<path d="M6.25 4.5C6.66422 4.5 7 4.16422 7 3.75C7 3.33579 6.66422 3 6.25 3C5.83579 3 5.5 3.33579 5.5 3.75C5.5 4.16422 5.83579 4.5 6.25 4.5Z" fill="black" fill-opacity="0.56"/>
<path fill-rule="evenodd" clip-rule="evenodd" d="M0 6.5C0 2.91015 2.91015 0 6.5 0C10.0899 0 13 2.91015 13 6.5C13 10.0899 10.0899 13 6.5 13C2.91015 13 0 10.0899 0 6.5ZM6.5 1C3.46243 1 1 3.46243 1 6.5C1 9.53757 3.46243 12 6.5 12C9.53757 12 12 9.53757 12 6.5C12 3.46243 9.53757 1 6.5 1Z" fill="black" fill-opacity="0.56"/>
</g>
</svg>
